<?xml version="1.0" encoding="UTF-8" standalone="no"?>
<!DOCTYPE svg PUBLIC "-//W3C//DTD SVG 1.1//EN"
 "http://www.w3.org/Graphics/SVG/1.1/DTD/svg11.dtd">
<!-- Generated by graphviz version 14.0.0 (20250921.2048)
 -->
<!-- Title: ResearchPipeline Pages: 1 -->
<svg width="576pt" height="33pt"
 viewBox="0.00 0.00 576.00 33.00" xmlns="http://www.w3.org/2000/svg" xmlns:xlink="http://www.w3.org/1999/xlink">
<g id="graph0" class="graph" transform="scale(0.682464 0.682464) rotate(0) translate(4 45)">
<title>ResearchPipeline</title>
<polygon fill="white" stroke="none" points="-4,4 -4,-45 840,-45 840,4 -4,4"/>
<!-- 1 -->
<g id="node1" class="node">
<title>1</title>
<polygon fill="#e0f7fa" stroke="black" points="152.5,-41 0,-41 0,0 152.5,0 152.5,-41"/>
<text xml:space="preserve" text-anchor="middle" x="76.25" y="-23.7" font-family="Times,serif" font-size="14.00">Scrape Publications</text>
<text xml:space="preserve" text-anchor="middle" x="76.25" y="-7.2" font-family="Times,serif" font-size="14.00">from Public Repositories</text>
</g>
<!-- 2 -->
<g id="node2" class="node">
<title>2</title>
<polygon fill="#ffe0b2" stroke="black" points="321.5,-41 188.5,-41 188.5,0 321.5,0 321.5,-41"/>
<text xml:space="preserve" text-anchor="middle" x="255" y="-23.7" font-family="Times,serif" font-size="14.00">Extract Abstracts</text>
<text xml:space="preserve" text-anchor="middle" x="255" y="-7.2" font-family="Times,serif" font-size="14.00">&amp; Detect Corrections</text>
</g>
<!-- 1&#45;&gt;2 -->
<g id="edge1" class="edge">
<title>1&#45;&gt;2</title>
<path fill="none" stroke="black" d="M152.98,-20.5C160.85,-20.5 168.85,-20.5 176.74,-20.5"/>
<polygon fill="black" stroke="black" points="176.66,-24 186.66,-20.5 176.66,-17 176.66,-24"/>
</g>
<!-- 3 -->
<g id="node3" class="node">
<title>3</title>
<polygon fill="#dcedc8" stroke="black" points="471.75,-41 357.5,-41 357.5,0 471.75,0 471.75,-41"/>
<text xml:space="preserve" text-anchor="middle" x="414.62" y="-23.7" font-family="Times,serif" font-size="14.00">Categorize &amp; Tag</text>
<text xml:space="preserve" text-anchor="middle" x="414.62" y="-7.2" font-family="Times,serif" font-size="14.00">Using LLaMA AI</text>
</g>
<!-- 2&#45;&gt;3 -->
<g id="edge2" class="edge">
<title>2&#45;&gt;3</title>
<path fill="none" stroke="black" d="M321.93,-20.5C329.87,-20.5 337.98,-20.5 345.94,-20.5"/>
<polygon fill="black" stroke="black" points="345.94,-24 355.94,-20.5 345.94,-17 345.94,-24"/>
</g>
<!-- 4 -->
<g id="node4" class="node">
<title>4</title>
<polygon fill="#f8bbd0" stroke="black" points="628.75,-41 507.75,-41 507.75,0 628.75,0 628.75,-41"/>
<text xml:space="preserve" text-anchor="middle" x="568.25" y="-23.7" font-family="Times,serif" font-size="14.00">Store in MongoDB</text>
<text xml:space="preserve" text-anchor="middle" x="568.25" y="-7.2" font-family="Times,serif" font-size="14.00">(Fast Querying)</text>
</g>
<!-- 3&#45;&gt;4 -->
<g id="edge3" class="edge">
<title>3&#45;&gt;4</title>
<path fill="none" stroke="black" d="M472.08,-20.5C479.92,-20.5 488.06,-20.5 496.13,-20.5"/>
<polygon fill="black" stroke="black" points="495.93,-24 505.93,-20.5 495.93,-17 495.93,-24"/>
</g>
<!-- 5 -->
<g id="node5" class="node">
<title>5</title>
<polygon fill="#c5cae9" stroke="black" points="836,-41 664.75,-41 664.75,0 836,0 836,-41"/>
<text xml:space="preserve" text-anchor="middle" x="750.38" y="-23.7" font-family="Times,serif" font-size="14.00">Display in Frontend</text>
<text xml:space="preserve" text-anchor="middle" x="750.38" y="-7.2" font-family="Times,serif" font-size="14.00">(Interactive Search &amp; Filter)</text>
</g>
<!-- 4&#45;&gt;5 -->
<g id="edge4" class="edge">
<title>4&#45;&gt;5</title>
<path fill="none" stroke="black" d="M629.23,-20.5C636.88,-20.5 644.86,-20.5 652.91,-20.5"/>
<polygon fill="black" stroke="black" points="652.79,-24 662.79,-20.5 652.79,-17 652.79,-24"/>
</g>
</g>
</svg>
